<svg width="8" height="16" viewBox="0 0 8 16" fill="none" xmlns="http://www.w3.org/2000/svg">
<path d="M7.9938 7.80306C7.96562 7.51065 7.8475 7.23414 7.65594 7.01161L2.53345 1.03536C2.29246 0.734618 1.93968 0.544649 1.556 0.508527C1.17228 0.472597 0.790577 0.593688 0.497761 0.844406C0.20496 1.09493 0.0263038 1.45362 0.00267839 1.83816C-0.0209436 2.22287 0.112457 2.60064 0.3725 2.88527L4.7036 7.93653L0.3725 12.9878C0.11265 13.2724 -0.0207481 13.6502 0.00287676 14.0349C0.0263014 14.4194 0.20496 14.7781 0.497761 15.0286C0.790562 15.2794 1.17248 15.4004 1.55621 15.3645C1.93993 15.3284 2.29247 15.1384 2.53345 14.8377L7.65594 8.86144C7.90745 8.56904 8.02934 8.18708 7.994 7.8032L7.9938 7.80306Z" fill="#797979"/>
</svg>
